<?xml version="1.0" encoding="UTF-8"?>
<svg version="1.1" xmlns="http://www.w3.org/2000/svg" width="100" height="100">
<path d="M0 0 C29.04 0 58.08 0 88 0 C88 18.68115942 88 18.68115942 83 26 C82.401875 26.9075 81.80375 27.815 81.1875 28.75 C73.43158266 36.72751498 64.22026219 42.05966151 53.0234375 42.23828125 C50.88099414 42.26353855 48.73875471 42.2835397 46.59619141 42.29516602 C45.12604105 42.30663894 43.6559308 42.32701612 42.18603516 42.35668945 C33.76773396 42.52649742 26.40669207 42.56072931 19 38 C17.9275 37.360625 16.855 36.72125 15.75 36.0625 C8.6546072 30.7409554 3.2854166 24.2135415 0 16 C0 10.72 0 5.44 0 0 Z M28 13 C27.67 14.65 27.34 16.3 27 18 C29.475 18.495 29.475 18.495 32 19 C32.33 17.35 32.66 15.7 33 14 C31.35 13.67 29.7 13.34 28 13 Z M56 13 C55.67 14.65 55.34 16.3 55 18 C57.475 18.495 57.475 18.495 60 19 C60.33 17.35 60.66 15.7 61 14 C59.35 13.67 57.7 13.34 56 13 Z M35 25 C36.36983503 28.16115776 36.9890638 28.9927092 40 31 C45.84056386 31.57015674 45.84056386 31.57015674 51 29.125 C53.2284549 27.24362573 53.2284549 27.24362573 53 25 C52.01 25.495 52.01 25.495 51 26 C46.16165994 27.61278002 41.83834006 27.61278002 37 26 C36.34 25.67 35.68 25.34 35 25 Z " fill="#000000" transform="translate(6,52)"/>
<path d="M0 0 C1 1 1 1 1.0625 3.5625 C1.041875 4.366875 1.02125 5.17125 1 6 C-1.8895333 7.44476665 -4.92609031 7.59048834 -8.09765625 7.97265625 C-8.80595078 8.06002548 -9.5142453 8.14739471 -10.2440033 8.2374115 C-11.74764233 8.42164916 -13.25152189 8.60393263 -14.75561523 8.78442383 C-17.03001087 9.0585837 -19.30306247 9.34235083 -21.57617188 9.62695312 C-28.73939535 10.50545329 -35.76907921 11.25443649 -43 11 C-43 9.35 -43 7.7 -43 6 C-38.32447616 5.13534046 -33.64717982 4.28127241 -28.96801758 3.43652344 C-27.37993625 3.14833817 -25.79235571 2.85737773 -24.20532227 2.56347656 C-7.44264793 -0.5370118 -7.44264793 -0.5370118 0 0 Z " fill="#000000" transform="translate(91,8)"/>
<path d="M0 0 C14.52 0 29.04 0 44 0 C44 1.98 44 3.96 44 6 C12.473206 6.20638953 12.473206 6.20638953 0 5 C0 3.35 0 1.7 0 0 Z " fill="#000000" transform="translate(48,26)"/>
<path d="M0 0 C1.32 0 2.64 0 4 0 C4 10.89 4 21.78 4 33 C2.68 33 1.36 33 0 33 C0 27.06 0 21.12 0 15 C-3.96 15 -7.92 15 -12 15 C-12 13.68 -12 12.36 -12 11 C-8.04 11 -4.08 11 0 11 C0 10.01 0 9.02 0 8 C-5.94 8.495 -5.94 8.495 -12 9 C-12 7.68 -12 6.36 -12 5 C-6.555 4.01 -6.555 4.01 -1 3 C-0.67 2.01 -0.34 1.02 0 0 Z " fill="#000000" transform="translate(18,15)"/>
<path d="M0 0 C1.65 0.33 3.3 0.66 5 1 C5.0867982 4.79152334 5.14032207 8.58279296 5.1875 12.375 C5.21263672 13.45523437 5.23777344 14.53546875 5.26367188 15.6484375 C5.27333984 16.6796875 5.28300781 17.7109375 5.29296875 18.7734375 C5.3086792 19.72653809 5.32438965 20.67963867 5.34057617 21.66162109 C5.22818604 22.43328613 5.1157959 23.20495117 5 24 C4.01 24.66 3.02 25.32 2 26 C1.34 25.67 0.68 25.34 0 25 C0 24.01 0 23.02 0 22 C-0.66 22 -1.32 22 -2 22 C-2 20.35 -2 18.7 -2 17 C-1.34 17 -0.68 17 0 17 C0 15.02 0 13.04 0 11 C-0.66 11 -1.32 11 -2 11 C-2 9.35 -2 7.7 -2 6 C-1.34 6 -0.68 6 0 6 C0 4.02 0 2.04 0 0 Z " fill="#000000" transform="translate(42,9)"/>
<path d="M0 0 C1.32 0 2.64 0 4 0 C4 7.92 4 15.84 4 24 C2.68 24 1.36 24 0 24 C0 22.68 0 21.36 0 20 C-0.66 20 -1.32 20 -2 20 C-2 18.68 -2 17.36 -2 16 C-1.34 16 -0.68 16 0 16 C0 14.35 0 12.7 0 11 C-0.66 11 -1.32 11 -2 11 C-2 9.35 -2 7.7 -2 6 C-1.34 6 -0.68 6 0 6 C0 4.02 0 2.04 0 0 Z " fill="#000000" transform="translate(34,10)"/>
<path d="M0 0 C1.32 0 2.64 0 4 0 C4 7.26 4 14.52 4 22 C2.68 22 1.36 22 0 22 C0 20.68 0 19.36 0 18 C-0.66 18 -1.32 18 -2 18 C-2 16.68 -2 15.36 -2 14 C-1.34 14 -0.68 14 0 14 C0 12.68 0 11.36 0 10 C-0.66 10 -1.32 10 -2 10 C-2 8.35 -2 6.7 -2 5 C-1.34 5 -0.68 5 0 5 C0 3.35 0 1.7 0 0 Z " fill="#000000" transform="translate(26,12)"/>
</svg>
